<?xml version="1.0" encoding="UTF-8" standalone="no"?>
<!DOCTYPE svg PUBLIC "-//W3C//DTD SVG 1.1//EN"
 "http://www.w3.org/Graphics/SVG/1.1/DTD/svg11.dtd">
<!-- Generated by graphviz version 2.43.0 (0)
 -->
<!-- Title: G Pages: 1 -->
<svg width="449pt" height="690pt"
 viewBox="0.00 0.00 448.59 690.00" xmlns="http://www.w3.org/2000/svg" xmlns:xlink="http://www.w3.org/1999/xlink">
<g id="graph0" class="graph" transform="scale(1 1) rotate(0) translate(4 686)">
<title>G</title>
<polygon fill="white" stroke="transparent" points="-4,4 -4,-686 444.59,-686 444.59,4 -4,4"/>
<g id="clust1" class="cluster">
<title>cluster_Global</title>
<path fill="none" stroke="gray" d="M195.59,-8C195.59,-8 420.59,-8 420.59,-8 426.59,-8 432.59,-14 432.59,-20 432.59,-20 432.59,-662 432.59,-662 432.59,-668 426.59,-674 420.59,-674 420.59,-674 195.59,-674 195.59,-674 189.59,-674 183.59,-668 183.59,-662 183.59,-662 183.59,-20 183.59,-20 183.59,-14 189.59,-8 195.59,-8"/>
<text text-anchor="middle" x="308.09" y="-661.2" font-family="Times,serif" font-size="11.00" fill="gray">Global</text>
</g>
<!-- \\OneLogin_Saml2_Settings -->
<g id="node1" class="node">
<title>\\OneLogin_Saml2_Settings</title>
<polygon fill="none" stroke="black" points="394.09,-646 222.09,-646 222.09,-610 394.09,-610 394.09,-646"/>
<text text-anchor="middle" x="308.09" y="-625.2" font-family="Courier,monospace" font-size="11.00">OneLogin_Saml2_Settings</text>
</g>
<!-- \\OneLogin_Saml2_IdPMetadataParser -->
<g id="node2" class="node">
<title>\\OneLogin_Saml2_IdPMetadataParser</title>
<polygon fill="none" stroke="black" points="424.59,-592 191.59,-592 191.59,-556 424.59,-556 424.59,-592"/>
<text text-anchor="middle" x="308.09" y="-571.2" font-family="Courier,monospace" font-size="11.00">OneLogin_Saml2_IdPMetadataParser</text>
</g>
<!-- \\OneLogin_Saml2_LogoutResponse -->
<g id="node3" class="node">
<title>\\OneLogin_Saml2_LogoutResponse</title>
<polygon fill="none" stroke="black" points="414.09,-538 202.09,-538 202.09,-502 414.09,-502 414.09,-538"/>
<text text-anchor="middle" x="308.09" y="-517.2" font-family="Courier,monospace" font-size="11.00">OneLogin_Saml2_LogoutResponse</text>
</g>
<!-- \\OneLogin_Saml2_Constants -->
<g id="node4" class="node">
<title>\\OneLogin_Saml2_Constants</title>
<polygon fill="none" stroke="black" points="397.59,-484 218.59,-484 218.59,-448 397.59,-448 397.59,-484"/>
<text text-anchor="middle" x="308.09" y="-463.2" font-family="Courier,monospace" font-size="11.00">OneLogin_Saml2_Constants</text>
</g>
<!-- \\OneLogin_Saml2_LogoutRequest -->
<g id="node5" class="node">
<title>\\OneLogin_Saml2_LogoutRequest</title>
<polygon fill="none" stroke="black" points="411.09,-430 205.09,-430 205.09,-394 411.09,-394 411.09,-430"/>
<text text-anchor="middle" x="308.09" y="-409.2" font-family="Courier,monospace" font-size="11.00">OneLogin_Saml2_LogoutRequest</text>
</g>
<!-- \\OneLogin_Saml2_Error -->
<g id="node6" class="node">
<title>\\OneLogin_Saml2_Error</title>
<polygon fill="none" stroke="black" points="384.09,-376 232.09,-376 232.09,-340 384.09,-340 384.09,-376"/>
<text text-anchor="middle" x="308.09" y="-355.2" font-family="Courier,monospace" font-size="11.00">OneLogin_Saml2_Error</text>
</g>
<!-- \\Exception -->
<g id="node13" class="node">
<title>\\Exception</title>
<ellipse fill="none" stroke="black" cx="59.79" cy="-331" rx="59.59" ry="18"/>
<text text-anchor="middle" x="59.79" y="-327.3" font-family="Times,serif" font-size="14.00" fill="gray">\Exception</text>
</g>
<!-- \\OneLogin_Saml2_Error&#45;&gt;\\Exception -->
<g id="edge1" class="edge">
<title>\\OneLogin_Saml2_Error&#45;&gt;\\Exception</title>
<path fill="none" stroke="black" d="M231.85,-349.75C198.28,-346.07 159.08,-341.77 126.68,-338.22"/>
<polygon fill="none" stroke="black" points="126.74,-334.71 116.42,-337.1 125.98,-341.67 126.74,-334.71"/>
</g>
<!-- \\OneLogin_Saml2_ValidationError -->
<g id="node7" class="node">
<title>\\OneLogin_Saml2_ValidationError</title>
<polygon fill="none" stroke="black" points="417.59,-322 198.59,-322 198.59,-286 417.59,-286 417.59,-322"/>
<text text-anchor="middle" x="308.09" y="-301.2" font-family="Courier,monospace" font-size="11.00">OneLogin_Saml2_ValidationError</text>
</g>
<!-- \\OneLogin_Saml2_ValidationError&#45;&gt;\\Exception -->
<g id="edge2" class="edge">
<title>\\OneLogin_Saml2_ValidationError&#45;&gt;\\Exception</title>
<path fill="none" stroke="black" d="M198.34,-315.92C173.87,-318.6 148.63,-321.37 126.55,-323.79"/>
<polygon fill="none" stroke="black" points="125.88,-320.34 116.32,-324.91 126.64,-327.3 125.88,-320.34"/>
</g>
<!-- \\OneLogin_Saml2_Utils -->
<g id="node8" class="node">
<title>\\OneLogin_Saml2_Utils</title>
<polygon fill="none" stroke="black" points="384.09,-268 232.09,-268 232.09,-232 384.09,-232 384.09,-268"/>
<text text-anchor="middle" x="308.09" y="-247.2" font-family="Courier,monospace" font-size="11.00">OneLogin_Saml2_Utils</text>
</g>
<!-- \\OneLogin_Saml2_Auth -->
<g id="node9" class="node">
<title>\\OneLogin_Saml2_Auth</title>
<polygon fill="none" stroke="black" points="380.59,-214 235.59,-214 235.59,-178 380.59,-178 380.59,-214"/>
<text text-anchor="middle" x="308.09" y="-193.2" font-family="Courier,monospace" font-size="11.00">OneLogin_Saml2_Auth</text>
</g>
<!-- \\OneLogin_Saml2_Response -->
<g id="node10" class="node">
<title>\\OneLogin_Saml2_Response</title>
<polygon fill="none" stroke="black" points="394.09,-160 222.09,-160 222.09,-124 394.09,-124 394.09,-160"/>
<text text-anchor="middle" x="308.09" y="-139.2" font-family="Courier,monospace" font-size="11.00">OneLogin_Saml2_Response</text>
</g>
<!-- \\OneLogin_Saml2_AuthnRequest -->
<g id="node11" class="node">
<title>\\OneLogin_Saml2_AuthnRequest</title>
<polygon fill="none" stroke="black" points="407.59,-106 208.59,-106 208.59,-70 407.59,-70 407.59,-106"/>
<text text-anchor="middle" x="308.09" y="-85.2" font-family="Courier,monospace" font-size="11.00">OneLogin_Saml2_AuthnRequest</text>
</g>
<!-- \\OneLogin_Saml2_Metadata -->
<g id="node12" class="node">
<title>\\OneLogin_Saml2_Metadata</title>
<polygon fill="none" stroke="black" points="394.09,-52 222.09,-52 222.09,-16 394.09,-16 394.09,-52"/>
<text text-anchor="middle" x="308.09" y="-31.2" font-family="Courier,monospace" font-size="11.00">OneLogin_Saml2_Metadata</text>
</g>
</g>
</svg>
